<svg width="30" height="42" viewBox="0 0 30 42" fill="none" xmlns="http://www.w3.org/2000/svg">
<path d="M26.3 0H3.7C2.72005 0.00581368 1.78148 0.524713 1.08855 1.44376C0.395617 2.36281 0.00438333 3.60764 0 4.90737V37.1147C0.00875 38.4105 0.401917 39.6498 1.09438 40.564C1.78685 41.4783 2.72292 41.9943 3.7 42C4.39517 41.9938 5.07562 41.7339 5.66667 41.2484L14.8 33.6663C14.8613 33.6219 14.9302 33.5985 15 33.5985C15.0698 33.5985 15.1387 33.6219 15.2 33.6663L24.3333 41.2484C24.892 41.7135 25.5342 41.9719 26.1935 41.9971C26.8528 42.0223 27.5052 41.8132 28.0832 41.3917C28.661 40.9701 29.1435 40.3512 29.4805 39.5994C29.8175 38.8473 29.9968 37.9894 30 37.1147V4.90737C29.9957 3.60764 29.6043 2.36281 28.9115 1.44376C28.2185 0.524713 27.28 0.00581368 26.3 0Z" fill="#3EC8A7"/>
</svg>
